<svg xmlns="http://www.w3.org/2000/svg" xmlns:xlink="http://www.w3.org/1999/xlink" width="500" zoomAndPan="magnify" viewBox="0 0 375 374.999991" height="500" preserveAspectRatio="xMidYMid meet" version="1.0"><defs><clipPath id="3d09a3fbc6"><path d="M 37.5 80.4375 L 337.5 80.4375 L 337.5 294.9375 L 37.5 294.9375 Z M 37.5 80.4375 " clip-rule="nonzero"/></clipPath><clipPath id="1c44310345"><path d="M 329.570312 222.984375 L 334.757812 222.984375 L 334.757812 258.210938 L 329.570312 258.210938 Z M 329.570312 222.984375 " clip-rule="nonzero"/></clipPath><clipPath id="0098e084c8"><path d="M 332.398438 223.886719 C 331.050781 228.386719 330.898438 229.4375 331.199219 230.9375 C 331.574219 233.335938 333.75 236.789062 334.273438 239.9375 C 334.875 243.238281 334.800781 247.289062 334.425781 250.4375 C 334.050781 253.136719 333.148438 256.8125 332.398438 257.710938 C 332.175781 258.085938 331.800781 258.238281 331.574219 258.164062 C 331.351562 258.085938 330.976562 257.488281 330.976562 257.261719 C 331.050781 257.039062 331.648438 256.664062 331.949219 256.738281 C 332.175781 256.738281 332.476562 257.414062 332.398438 257.636719 C 332.398438 257.863281 331.949219 258.238281 331.648438 258.164062 C 331.425781 258.164062 331.050781 257.789062 330.976562 257.335938 C 330.75 256.210938 332.550781 252.988281 332.925781 250.4375 C 333.375 247.4375 333.449219 243.539062 332.925781 240.238281 C 332.324219 237.011719 330 233.710938 329.699219 230.9375 C 329.398438 228.835938 329.773438 226.664062 330.148438 225.238281 C 330.449219 224.261719 330.898438 223.136719 331.351562 222.988281 C 331.648438 222.914062 332.398438 223.886719 332.398438 223.886719 " clip-rule="nonzero"/></clipPath><clipPath id="ab4a9d2248"><path d="M 40.214844 232.292969 L 42.480469 232.292969 L 42.480469 248.773438 L 40.214844 248.773438 Z M 40.214844 232.292969 " clip-rule="nonzero"/></clipPath><clipPath id="72ea1330ff"><path d="M 42 233.074219 C 42.449219 248.523438 42.074219 248.75 41.851562 248.75 C 41.625 248.75 41.101562 248.148438 41.175781 247.925781 C 41.25 247.699219 42.300781 247.324219 42.449219 247.476562 C 42.601562 247.625 42.148438 248.675781 41.925781 248.75 C 41.699219 248.824219 41.398438 248.523438 41.175781 248 C 40.351562 246.199219 39.898438 234.875 40.5 233.074219 C 40.648438 232.625 40.949219 232.324219 41.175781 232.324219 C 41.398438 232.324219 42 233.074219 42 233.074219 " clip-rule="nonzero"/></clipPath></defs><rect x="-37.5" width="450" fill="#ffffff" y="-37.499999" height="449.999989" fill-opacity="1"/><rect x="-37.5" width="450" fill="#ffffff" y="-37.499999" height="449.999989" fill-opacity="1"/><g clip-path="url(#3d09a3fbc6)"><path fill="#ffffff" d="M 150.027344 198.207031 C 141.171875 198.207031 133.96875 205.410156 133.96875 214.265625 C 133.96875 223.121094 141.171875 230.324219 150.027344 230.324219 C 158.882812 230.324219 166.085938 223.121094 166.085938 214.265625 C 166.085938 205.410156 158.882812 198.207031 150.027344 198.207031 Z M 150.027344 219.617188 C 147.074219 219.617188 144.675781 217.214844 144.675781 214.265625 C 144.675781 211.316406 147.074219 208.914062 150.027344 208.914062 C 152.980469 208.914062 155.382812 211.316406 155.382812 214.265625 C 155.382812 217.214844 152.980469 219.617188 150.027344 219.617188 Z M 224.972656 198.207031 C 216.117188 198.207031 208.914062 205.410156 208.914062 214.265625 C 208.914062 223.121094 216.117188 230.324219 224.972656 230.324219 C 233.828125 230.324219 241.03125 223.121094 241.03125 214.265625 C 241.03125 205.410156 233.828125 198.207031 224.972656 198.207031 Z M 224.972656 219.617188 C 222.023438 219.617188 219.617188 217.214844 219.617188 214.265625 C 219.617188 211.316406 222.023438 208.914062 224.972656 208.914062 C 227.921875 208.914062 230.324219 211.316406 230.324219 214.265625 C 230.324219 217.214844 227.921875 219.617188 224.972656 219.617188 Z M 235.679688 176.792969 L 139.320312 176.792969 C 118.664062 176.792969 101.851562 193.605469 101.851562 214.265625 C 101.851562 234.925781 118.664062 251.738281 139.320312 251.738281 L 235.679688 251.738281 C 256.335938 251.738281 273.148438 234.925781 273.148438 214.265625 C 273.148438 193.605469 256.335938 176.792969 235.679688 176.792969 Z M 235.679688 241.03125 L 139.320312 241.03125 C 124.5625 241.03125 112.554688 229.027344 112.554688 214.265625 C 112.554688 199.503906 124.5625 187.5 139.320312 187.5 L 235.679688 187.5 C 250.441406 187.5 262.445312 199.503906 262.445312 214.265625 C 262.445312 229.027344 250.441406 241.03125 235.679688 241.03125 Z M 326.679688 199.191406 L 326.679688 111.570312 C 332.898438 109.351562 337.386719 103.464844 337.386719 96.496094 C 337.386719 87.640625 330.183594 80.4375 321.328125 80.4375 C 312.472656 80.4375 305.269531 87.640625 305.269531 96.496094 C 305.269531 103.464844 309.757812 109.351562 315.976562 111.570312 L 315.976562 199.191406 C 313.78125 199.976562 311.792969 201.175781 310.152344 202.769531 C 293.832031 150.554688 245.023438 112.554688 187.5 112.554688 C 129.980469 112.554688 81.167969 150.554688 64.847656 202.769531 C 63.207031 201.175781 61.21875 199.976562 59.023438 199.191406 L 59.023438 111.570312 C 65.242188 109.351562 69.730469 103.464844 69.730469 96.496094 C 69.730469 87.640625 62.527344 80.4375 53.671875 80.4375 C 44.816406 80.4375 37.613281 87.640625 37.613281 96.496094 C 37.613281 103.464844 42.101562 109.351562 48.320312 111.570312 L 48.320312 199.191406 C 42.101562 201.410156 37.613281 207.296875 37.613281 214.265625 L 37.613281 257.089844 C 37.613281 265.945312 44.816406 273.148438 53.671875 273.148438 C 58.710938 273.148438 63.160156 270.769531 66.109375 267.125 C 75.296875 283.410156 92.5625 294.5625 112.554688 294.5625 L 262.445312 294.5625 C 282.4375 294.5625 299.703125 283.410156 308.890625 267.125 C 311.839844 270.769531 316.289062 273.148438 321.328125 273.148438 C 330.183594 273.148438 337.386719 265.945312 337.386719 257.089844 L 337.386719 214.265625 C 337.386719 207.296875 332.898438 201.410156 326.679688 199.191406 Z M 321.328125 91.144531 C 324.277344 91.144531 326.679688 93.546875 326.679688 96.496094 C 326.679688 99.445312 324.277344 101.851562 321.328125 101.851562 C 318.378906 101.851562 315.976562 99.445312 315.976562 96.496094 C 315.976562 93.546875 318.378906 91.144531 321.328125 91.144531 Z M 53.671875 91.144531 C 56.625 91.144531 59.023438 93.546875 59.023438 96.496094 C 59.023438 99.445312 56.625 101.851562 53.671875 101.851562 C 50.71875 101.851562 48.320312 99.445312 48.320312 96.496094 C 48.320312 93.546875 50.71875 91.144531 53.671875 91.144531 Z M 59.023438 257.089844 C 59.023438 260.039062 56.625 262.445312 53.671875 262.445312 C 50.71875 262.445312 48.320312 260.039062 48.320312 257.089844 L 48.320312 214.265625 C 48.320312 211.316406 50.71875 208.914062 53.671875 208.914062 C 56.625 208.914062 59.023438 211.316406 59.023438 214.265625 Z M 262.445312 283.855469 L 112.554688 283.855469 C 88.941406 283.855469 69.730469 264.648438 69.730469 241.03125 C 69.730469 176.09375 122.5625 123.261719 187.5 123.261719 C 252.4375 123.261719 305.269531 176.09375 305.269531 241.03125 C 305.269531 264.648438 286.0625 283.855469 262.445312 283.855469 Z M 326.679688 257.089844 C 326.679688 260.039062 324.277344 262.445312 321.328125 262.445312 C 318.378906 262.445312 315.976562 260.039062 315.976562 257.089844 L 315.976562 214.265625 C 315.976562 211.316406 318.378906 208.914062 321.328125 208.914062 C 324.277344 208.914062 326.679688 211.316406 326.679688 214.265625 Z M 326.679688 257.089844 " fill-opacity="1" fill-rule="nonzero"/></g><g clip-path="url(#1c44310345)"><g clip-path="url(#0098e084c8)"><path fill="#ffffff" d="M 326.699219 219.988281 L 337.5 219.988281 L 337.5 261.164062 L 326.699219 261.164062 Z M 326.699219 219.988281 " fill-opacity="1" fill-rule="nonzero"/></g></g><g clip-path="url(#ab4a9d2248)"><g clip-path="url(#72ea1330ff)"><path fill="#ffffff" d="M 37.5 229.324219 L 45.675781 229.324219 L 45.675781 251.839844 L 37.5 251.839844 Z M 37.5 229.324219 " fill-opacity="1" fill-rule="nonzero"/></g></g></svg>