<svg xmlns="http://www.w3.org/2000/svg" xmlns:xlink="http://www.w3.org/1999/xlink" width="500" zoomAndPan="magnify" viewBox="0 0 375 374.999991" height="500" preserveAspectRatio="xMidYMid meet" version="1.0"><defs><clipPath id="a22199fc17"><path d="M 74.894531 107.269531 L 299.894531 107.269531 L 299.894531 267.769531 L 74.894531 267.769531 Z M 74.894531 107.269531 " clip-rule="nonzero"/></clipPath><clipPath id="5821eed3e7"><path d="M 286 137.46875 L 291.183594 137.46875 L 291.183594 172.695312 L 286 172.695312 Z M 286 137.46875 " clip-rule="nonzero"/></clipPath><clipPath id="c35600e06c"><path d="M 288.824219 138.375 C 287.476562 142.875 287.324219 143.925781 287.625 145.425781 C 288 147.824219 290.175781 151.273438 290.699219 154.425781 C 291.300781 157.726562 291.226562 161.773438 290.851562 164.925781 C 290.476562 167.625 289.574219 171.300781 288.824219 172.199219 C 288.601562 172.574219 288.226562 172.726562 288 172.648438 C 287.773438 172.574219 287.398438 171.976562 287.398438 171.75 C 287.476562 171.523438 288.074219 171.148438 288.375 171.226562 C 288.601562 171.226562 288.898438 171.898438 288.824219 172.125 C 288.824219 172.351562 288.375 172.726562 288.074219 172.648438 C 287.851562 172.648438 287.476562 172.273438 287.398438 171.824219 C 287.175781 170.699219 288.976562 167.476562 289.351562 164.925781 C 289.800781 161.925781 289.875 158.023438 289.351562 154.726562 C 288.75 151.5 286.425781 148.199219 286.125 145.425781 C 285.824219 143.324219 286.199219 141.148438 286.574219 139.726562 C 286.875 138.75 287.324219 137.625 287.773438 137.476562 C 288.074219 137.398438 288.824219 138.375 288.824219 138.375 " clip-rule="nonzero"/></clipPath><clipPath id="b90a1c337e"><path d="M 85.8125 158.144531 L 88.082031 158.144531 L 88.082031 174.621094 L 85.8125 174.621094 Z M 85.8125 158.144531 " clip-rule="nonzero"/></clipPath><clipPath id="c73e699808"><path d="M 87.601562 158.925781 C 88.050781 174.375 87.675781 174.601562 87.449219 174.601562 C 87.226562 174.601562 86.699219 174 86.773438 173.773438 C 86.851562 173.550781 87.898438 173.175781 88.050781 173.324219 C 88.199219 173.476562 87.75 174.523438 87.523438 174.601562 C 87.300781 174.675781 87 174.375 86.773438 173.851562 C 85.949219 172.050781 85.5 160.726562 86.101562 158.925781 C 86.25 158.476562 86.550781 158.175781 86.773438 158.175781 C 87 158.175781 87.601562 158.925781 87.601562 158.925781 " clip-rule="nonzero"/></clipPath></defs><g clip-path="url(#a22199fc17)"><path fill="#ffffff" d="M 159.222656 195.515625 C 152.585938 195.515625 147.1875 200.914062 147.1875 207.550781 C 147.1875 214.1875 152.585938 219.585938 159.222656 219.585938 C 165.859375 219.585938 171.257812 214.1875 171.257812 207.550781 C 171.257812 200.914062 165.859375 195.515625 159.222656 195.515625 Z M 159.222656 211.5625 C 157.007812 211.5625 155.210938 209.761719 155.210938 207.550781 C 155.210938 205.34375 157.007812 203.539062 159.222656 203.539062 C 161.433594 203.539062 163.234375 205.34375 163.234375 207.550781 C 163.234375 209.761719 161.433594 211.5625 159.222656 211.5625 Z M 215.378906 195.515625 C 208.746094 195.515625 203.347656 200.914062 203.347656 207.550781 C 203.347656 214.1875 208.746094 219.585938 215.378906 219.585938 C 222.015625 219.585938 227.414062 214.1875 227.414062 207.550781 C 227.414062 200.914062 222.015625 195.515625 215.378906 195.515625 Z M 215.378906 211.5625 C 213.171875 211.5625 211.371094 209.761719 211.371094 207.550781 C 211.371094 205.34375 213.171875 203.539062 215.378906 203.539062 C 217.589844 203.539062 219.390625 205.34375 219.390625 207.550781 C 219.390625 209.761719 217.589844 211.5625 215.378906 211.5625 Z M 223.402344 179.472656 L 151.199219 179.472656 C 135.71875 179.472656 123.121094 192.070312 123.121094 207.550781 C 123.121094 223.03125 135.71875 235.628906 151.199219 235.628906 L 223.402344 235.628906 C 238.882812 235.628906 251.484375 223.03125 251.484375 207.550781 C 251.484375 192.070312 238.882812 179.472656 223.402344 179.472656 Z M 223.402344 227.609375 L 151.199219 227.609375 C 140.140625 227.609375 131.144531 218.613281 131.144531 207.550781 C 131.144531 196.488281 140.140625 187.496094 151.199219 187.496094 L 223.402344 187.496094 C 234.464844 187.496094 243.460938 196.488281 243.460938 207.550781 C 243.460938 218.613281 234.464844 227.609375 223.402344 227.609375 Z M 291.597656 196.257812 L 291.597656 130.597656 C 296.253906 128.9375 299.617188 124.523438 299.617188 119.300781 C 299.617188 112.667969 294.21875 107.269531 287.585938 107.269531 C 280.949219 107.269531 275.550781 112.667969 275.550781 119.300781 C 275.550781 124.523438 278.914062 128.9375 283.574219 130.597656 L 283.574219 196.257812 C 281.929688 196.84375 280.4375 197.742188 279.210938 198.9375 C 266.980469 159.808594 230.40625 131.335938 187.300781 131.335938 C 144.199219 131.335938 107.621094 159.808594 95.390625 198.9375 C 94.164062 197.742188 92.671875 196.84375 91.03125 196.257812 L 91.03125 130.597656 C 95.6875 128.9375 99.050781 124.523438 99.050781 119.300781 C 99.050781 112.667969 93.652344 107.269531 87.019531 107.269531 C 80.382812 107.269531 74.984375 112.667969 74.984375 119.300781 C 74.984375 124.523438 78.347656 128.9375 83.007812 130.597656 L 83.007812 196.257812 C 78.347656 197.917969 74.984375 202.328125 74.984375 207.550781 L 74.984375 239.640625 C 74.984375 246.277344 80.382812 251.675781 87.019531 251.675781 C 90.796875 251.675781 94.128906 249.890625 96.335938 247.164062 C 103.222656 259.367188 116.160156 267.722656 131.144531 267.722656 L 243.460938 267.722656 C 258.441406 267.722656 271.378906 259.367188 278.265625 247.164062 C 280.472656 249.890625 283.808594 251.675781 287.585938 251.675781 C 294.21875 251.675781 299.617188 246.277344 299.617188 239.640625 L 299.617188 207.550781 C 299.617188 202.328125 296.253906 197.917969 291.597656 196.257812 Z M 287.585938 115.289062 C 289.792969 115.289062 291.597656 117.09375 291.597656 119.300781 C 291.597656 121.511719 289.792969 123.3125 287.585938 123.3125 C 285.375 123.3125 283.574219 121.511719 283.574219 119.300781 C 283.574219 117.09375 285.375 115.289062 287.585938 115.289062 Z M 87.019531 115.289062 C 89.230469 115.289062 91.03125 117.09375 91.03125 119.300781 C 91.03125 121.511719 89.230469 123.3125 87.019531 123.3125 C 84.804688 123.3125 83.007812 121.511719 83.007812 119.300781 C 83.007812 117.09375 84.804688 115.289062 87.019531 115.289062 Z M 91.03125 239.640625 C 91.03125 241.851562 89.230469 243.652344 87.019531 243.652344 C 84.804688 243.652344 83.007812 241.851562 83.007812 239.640625 L 83.007812 207.550781 C 83.007812 205.34375 84.804688 203.539062 87.019531 203.539062 C 89.230469 203.539062 91.03125 205.34375 91.03125 207.550781 Z M 243.460938 259.699219 L 131.144531 259.699219 C 113.449219 259.699219 99.050781 245.304688 99.050781 227.609375 C 99.050781 178.945312 138.640625 139.359375 187.300781 139.359375 C 235.960938 139.359375 275.550781 178.945312 275.550781 227.609375 C 275.550781 245.304688 261.160156 259.699219 243.460938 259.699219 Z M 291.597656 239.640625 C 291.597656 241.851562 289.792969 243.652344 287.585938 243.652344 C 285.375 243.652344 283.574219 241.851562 283.574219 239.640625 L 283.574219 207.550781 C 283.574219 205.34375 285.375 203.539062 287.585938 203.539062 C 289.792969 203.539062 291.597656 205.34375 291.597656 207.550781 Z M 291.597656 239.640625 " fill-opacity="1" fill-rule="nonzero"/></g><g clip-path="url(#5821eed3e7)"><g clip-path="url(#c35600e06c)"><path fill="#ffffff" d="M 283.125 134.476562 L 293.925781 134.476562 L 293.925781 175.648438 L 283.125 175.648438 Z M 283.125 134.476562 " fill-opacity="1" fill-rule="nonzero"/></g></g><g clip-path="url(#b90a1c337e)"><g clip-path="url(#c73e699808)"><path fill="#ffffff" d="M 83.101562 155.175781 L 91.273438 155.175781 L 91.273438 177.6875 L 83.101562 177.6875 Z M 83.101562 155.175781 " fill-opacity="1" fill-rule="nonzero"/></g></g></svg>